<svg width="43" height="36" fill="none" xmlns="http://www.w3.org/2000/svg"><path d="M40.25 13.125h-9.18L22.673.825A1.952 1.952 0 0021.084 0c-.614 0-1.227.3-1.591.844l-8.395 12.281H1.917C.863 13.125 0 13.969 0 15c0 .169 0 .338.077.506l4.868 17.382c.44 1.575 1.917 2.737 3.68 2.737h24.917c1.763 0 3.239-1.163 3.699-2.737l4.868-17.382.058-.506c0-1.031-.863-1.875-1.917-1.875zM21.083 5.25l5.367 7.875H15.717l5.366-7.875zm12.459 26.625H8.625l-4.197-15h33.33l-4.216 15zm-12.459-11.25c-2.108 0-3.833 1.688-3.833 3.75 0 2.063 1.725 3.75 3.833 3.75 2.109 0 3.834-1.688 3.834-3.75 0-2.063-1.725-3.75-3.834-3.75z" fill="#1E1E1E"/></svg>