<svg width="43" height="39" viewBox="0 0 40 39" fill="none" xmlns="http://www.w3.org/2000/svg"><path d="M20 .75c-2.517 0-5.01.485-7.335 1.427a19.2 19.2 0 00-6.218 4.065C2.853 9.758.833 14.527.833 19.5c0 4.973 2.02 9.742 5.614 13.258a19.2 19.2 0 006.218 4.065A19.536 19.536 0 0020 38.25c5.083 0 9.959-1.975 13.553-5.492 3.594-3.516 5.614-8.285 5.614-13.258 0-2.462-.496-4.9-1.46-7.175a18.727 18.727 0 00-4.154-6.083 19.2 19.2 0 00-6.218-4.065A19.537 19.537 0 0020 .75zm-9.45 30.525c.825-1.688 5.847-3.337 9.45-3.337 3.603 0 8.625 1.65 9.45 3.337A15.34 15.34 0 0120 34.5a15.34 15.34 0 01-9.45-3.225zm21.64-2.719c-2.74-3.262-9.392-4.369-12.19-4.369s-9.45 1.107-12.19 4.37A14.658 14.658 0 014.667 19.5c0-8.269 6.88-15 15.333-15s15.333 6.731 15.333 15c0 3.413-1.188 6.563-3.143 9.056zM20 8.25c-3.718 0-6.708 2.925-6.708 6.563 0 3.637 2.99 6.562 6.708 6.562s6.708-2.925 6.708-6.563c0-3.637-2.99-6.562-6.708-6.562zm0 9.375a2.908 2.908 0 01-2.033-.824 2.782 2.782 0 01-.842-1.988c0-.746.303-1.462.842-1.99A2.908 2.908 0 0120 12c.762 0 1.494.296 2.033.824.54.527.842 1.243.842 1.989 0 .745-.303 1.46-.842 1.988-.54.528-1.27.824-2.033.824z" fill="#1E1E1E"/></svg>